<svg xmlns="http://www.w3.org/2000/svg" width="1024" height="1024"><path fill="#D3D4D4" d="M0 0h1024v1024H0z"/><path fill="#1A1D1D" d="M395 168c5.478 2.361 9.608 5.351 12 11 .726 5.251.632 10.471.568 15.758q-.002 2.448.001 4.898c.002 4.361-.027 8.722-.063 13.083-.028 4.096-.03 8.193-.033 12.29-.026 11.97-.096 23.939-.16 35.909L407 342h203c-.237-53.238-.237-53.238-.54-106.476-.028-10.306-.028-10.306-.033-15.134-.005-3.366-.028-6.73-.06-10.096-.042-4.3-.054-8.598-.045-12.897a346 346 0 0 0-.037-4.722c-.113-8.005.038-14.455 5.036-21.073 3.743-3.571 7.355-4.1 12.363-3.985 4.859.803 8.068 3.658 10.888 7.555 1.744 3.453 1.798 5.794 1.789 9.655l.008 2.043c.004 2.25-.012 4.501-.028 6.752v4.85c.002 4.384-.016 8.767-.037 13.151-.019 4.583-.02 9.166-.024 13.75-.01 8.676-.034 17.353-.064 26.03-.033 9.879-.05 19.758-.065 29.637q-.048 30.48-.151 60.96l2.57-.011q30.973-.134 61.947-.196c9.985-.02 19.971-.049 29.957-.095q13.056-.06 26.114-.074c4.608-.006 9.216-.018 13.824-.047q6.51-.039 13.02-.03 2.385 0 4.77-.024c15.006-.138 15.006-.138 21.798 4.477 4.146 4.465 5.466 7.545 5.418 13.543-.737 4.333-3.291 7.467-6.418 10.457-3.575 2.316-6.66 2.247-10.859 2.24l-2.084.006c-2.311.003-4.622-.008-6.933-.019h-5.048c-4.508.001-9.016-.01-13.524-.024-4.23-.012-8.459-.012-12.688-.014-12.372-.01-24.743-.038-37.114-.064L640 372l-1 207c54.6-.158 54.6-.158 109.2-.36 10.564-.018 10.564-.018 15.51-.022q5.18-.006 10.357-.04 6.612-.04 13.223-.03 2.422-.002 4.845-.025c15.114-.138 15.114-.138 21.865 4.477 2.842 3.197 3.874 5.15 4.5 9.375-.804 5.83-2.8 10.046-7.125 14.063-3.367 2.214-5.084 2.687-9.078 2.689l-3.012.009-3.32-.007-3.491.006q-5.768.004-11.537-.002l-8.097.003q-8.544.003-17.09-.006-9.7-.007-19.4.002-8.426.007-16.85.003-4.986-.003-9.971.001c-23.188.017-46.351-.517-69.529-1.136l.001 2.695q.011 32.475-.081 64.95c-.03 10.47-.048 20.94-.04 31.41q.012 13.69-.046 27.38c-.02 4.832-.03 9.663-.014 14.495q.02 6.825-.035 13.651a392 392 0 0 0 .008 5.002c.11 15.206.11 15.206-5.27 21.114-3.292 2.816-5.761 3.235-10.023 3.615-5.269-.47-7.902-2.462-11.25-6.375-3.305-4.315-3.374-6.29-3.37-11.707l-.003-2.129c-.002-2.372.004-4.745.01-7.117v-5.167q0-6.937.012-13.873.007-6.503.006-13.004c.006-12.689.02-25.377.033-38.065L610 609H408c-.13 56.245-.13 56.245-.208 112.49-.04 10.882-.04 10.882-.066 15.977q-.023 5.335-.012 10.67c.008 4.54-.009 9.08-.042 13.62q-.012 2.495.001 4.991c.078 15.004.078 15.004-4.322 20.894-3.288 3.305-6.312 4.228-10.851 4.795-5.366-.67-8.25-3.052-11.812-7-2.86-4.131-2.812-7.376-2.808-12.29l-.003-2.123q0-3.531.01-7.062l-.001-5.055q.001-6.87.013-13.741c.006-4.785.006-9.57.008-14.354q.005-13.595.021-27.188.016-15.476.022-30.95.016-31.838.05-63.674l-2.542.011q-30.622.134-61.244.196c-9.873.02-19.745.049-29.618.095q-12.907.06-25.816.074c-4.556.006-9.112.018-13.668.047q-6.435.039-12.87.03-2.36 0-4.718.024c-14.782.137-14.782.137-20.524-4.477-4.167-4.605-5.44-7.562-5.332-13.684.545-3.803 2.4-6.046 5.332-8.316 7.674-5.035 16.078-4.542 24.893-4.454q2.434.001 4.87-.002c4.325 0 8.65.023 12.976.05 4.067.024 8.133.025 12.2.028 11.875.02 23.75.076 35.623.128L378 579V372l-54 1c-11.148.082-22.29.15-33.437.125l-4.104-.007c-9.486-.017-18.973-.062-28.459-.118l-3.752-.019a2265 2265 0 0 1-20.44-.19 947 947 0 0 0-6.047-.061 695 695 0 0 1-8.214-.12l-2.386-.004c-5.181-.14-8.151-1.355-12.161-4.606-2.845-3.237-3.848-5.89-4.437-10.187.59-5.14 2.71-8.276 6.437-11.813 6.827-5.417 14.553-4.535 22.85-4.454q2.424.001 4.85-.002c4.375-.001 8.75.022 13.126.05 4.578.025 9.156.028 13.733.033 8.663.012 17.325.045 25.988.085 9.864.045 19.729.067 29.594.087 20.286.041 40.573.112 60.859.201l-.011-2.529q-.134-30.459-.196-60.918c-.02-9.82-.049-19.64-.095-29.46q-.06-12.837-.074-25.676c-.006-4.532-.018-9.064-.047-13.596q-.039-6.399-.03-12.799 0-2.347-.024-4.695c-.02-2.14-.015-4.278-.004-6.417l-.011-3.626c.749-4.999 3.543-8.842 7.305-12.159 3.88-2.586 5.607-2.848 10.187-2.125"/><path fill="#E2E4E4" d="M407 372h203v207H407z"/><path fill="#1D1F20" d="m514 646 3.363.176c14.902 1.4 29.234 9.321 39.032 20.574C569.587 683.552 573.809 700.938 572 722c-2.967 17.094-13.745 32.942-27.473 43.285-13.885 9.421-32.158 12.943-48.715 10.184-19.9-4.67-34.091-16.363-44.812-33.469-1.605-2.61-2.91-5.138-4-8l-.898-2.344c-4.865-15.53-3.743-33.869 2.898-48.656 8.37-15.986 21.308-27.238 38-34 8.962-2.78 17.664-3.591 27-3"/><path fill="#1C1E1F" d="M776.18 655.816 779 658l2.695 2.027c14.925 12.255 21.702 30.62 23.664 49.414.717 17.5-7.025 33.631-18.359 46.559l-1.684 1.938c-10.843 11.649-25.8 17.16-41.406 18.285-17.766.495-33.655-5.406-46.91-17.223l-2.078-1.797c-10.24-9.458-17.213-23.54-18.063-37.515-.781-20.76 2.855-37.783 17.141-53.688 20.911-21.53 56.55-28.046 82.18-10.184M313 656c14.191 11.05 24.487 26.563 27.598 44.434 2.272 20.144-3.513 38.374-15.786 54.504C314.51 766.688 299.583 774.415 284 776c-19.058.972-34.252-3.936-49.41-15.629-10.66-9.76-20.739-24.116-21.767-38.92-.475-20.89 1.694-37.877 15.99-54.326C250.037 645.033 286.854 638.403 313 656"/><path fill="#1B1E1F" d="M542.188 184.5c3.66 2.527 6.836 5.174 9.812 8.5l2.375 2.25c11.663 12.218 18.043 26.124 17.938 43.063l-.015 2.817c-.115 6.69-.765 12.624-3.298 18.87l-1.066 2.71c-4.985 11.746-11.647 23.135-22.684 29.915l-1.883 1.174c-16.704 10.257-33.92 12.397-52.955 7.97C476.92 298.357 466.554 290.91 458 280l-1.812-2.309c-11.306-15.228-14.142-32.523-11.758-51.027 3.888-17.904 15.367-32.72 30.57-42.664 21.124-11.307 46.366-12.103 67.188.5"/><path fill="#1B1D1E" d="m277.875 175.563 3.195.029c16.875.384 29.661 7.223 41.805 18.595 13.214 13.954 18.663 31.672 18.457 50.715-.985 16.995-11.114 33.729-23.332 45.098-13.917 11.689-30.27 15.446-48 14-18.088-2.387-33.074-10.922-44.375-25.375-11.654-15.565-14.376-33.188-12.227-52.137 2.96-15.629 12.054-29.175 24.977-38.238 12.497-8.407 24.333-12.845 39.5-12.687M778.594 186.996c13.725 11.43 23.681 25.873 26.125 43.871 1.939 21.6-4.725 37.52-18.328 54.094-9.776 10.695-24.566 17.603-38.93 18.48-17.348.57-34.107-1.93-47.586-13.691A329 329 0 0 1 695 285l-2.125-2.02c-12.188-12.45-16.299-27.794-16.164-44.696.315-16.955 6.591-32.317 18.664-44.409 22.551-21.564 57.418-26.271 83.219-6.879"/><path fill="#1D1E1F" d="m762 416 1.875.652c16.423 5.906 28.613 16.807 36.438 32.66 5.778 14.382 6.924 30.167.889 44.597-9.611 21.519-22.078 34.635-44.159 43.11-16.037 5.168-33.978 2.178-48.793-5.082-15.48-8.919-24.534-23.617-30-40.214-4.087-16.15-1.844-33.232 6.5-47.473 8.962-13.682 20.248-23.819 36.25-28.25l3.012-.898c12.649-3.392 25.575-3.431 37.988.898"/><path fill="#191B1C" d="M468.797 418.11c3.965 2.34 6.885 5.169 10.078 8.452l1.797 1.788C485 432.733 485 432.733 485 435h2c1.234 1.293 1.234 1.293 2.75 3.188 5.502 6.51 11.957 12.086 18.25 17.812 4.886-4.008 9.255-8.263 13.5-12.937 5.09-5.515 10.235-10.965 15.5-16.313l1.85-1.914c4.38-4.415 8.257-7.526 14.65-8.211 5.403.579 8.814 2.337 12.313 6.438 2.988 4.012 3.745 5.914 3.187 10.937-3.006 6.38-7.705 10.967-12.875 15.625l-2.066 1.906a313 313 0 0 1-9.836 8.672c-2.53 2.152-4.776 4.369-6.91 6.922-2.337 2.747-4.708 5.374-7.313 7.875 3.657 8.01 10.88 13.944 17.25 19.813a3925 3925 0 0 1 6.682 6.242 482 482 0 0 1 8.505 8.195l2.56 2.516c2.903 3.237 3.914 5.273 4.316 9.609-.47 5.45-2.217 8.882-6.313 12.438-4.412 3.217-7.606 3.644-13 3.187-5.466-3.074-9.626-7.335-14.023-11.758l-2.262-2.255a2138 2138 0 0 1-4.694-4.705 2091 2091 0 0 0-7.228-7.216l-4.566-4.574-2.197-2.184-2.004-2.023-1.776-1.78C510 499 510 499 510 497h-3l-.625 1.625c-1.908 3.295-4.423 5.969-7.375 8.375h-2l-.656 1.684c-1.771 3.052-4.21 5.094-6.844 7.378-4.235 3.754-8.09 7.61-11.812 11.875-4.657 5.208-8.077 8.62-15.25 9.5-5.704-.725-9.794-2.983-13.438-7.437-.75-1.75-.75-1.75-1-4l-.437-3.75c.089-5.335 2.877-8.506 6.437-12.25 1.803-1.636 3.658-3.194 5.527-4.754 4.012-3.644 7.622-7.662 11.286-11.652a296 296 0 0 1 10.71-11.088c1.681-1.714 3.127-3.521 4.477-5.506-1.582-3.838-4.023-6.267-6.945-9.176l-1.481-1.48a966 966 0 0 0-3.112-3.088 1123 1123 0 0 1-4.68-4.66c-4.924-4.906-9.89-9.716-15.205-14.201-4.086-3.615-5.824-6.893-6.202-12.27.22-5.607 2.577-9.337 6.625-13.125 4.55-2.738 8.844-2.855 13.797-.89"/><path fill="#181A1B" d="M238 418c6.483 3.178 11.372 9.055 16 14.5 5.427 6.311 11.479 12.06 17.394 17.91C273 452 273 452 274.458 453.767L276 455c4.67-.638 7.182-3.786 10.34-7.012l1.83-1.836q1.915-1.925 3.82-3.86c1.93-1.962 3.87-3.912 5.813-5.86l3.724-3.756 1.74-1.753c2.608-2.653 5.105-5.325 7.45-8.215 2.572-3.05 4.156-4.534 8.138-5.15 6.02-.218 10.185-.298 14.895 3.755 3.174 3.18 4.135 5.464 4.563 10-.63 7.424-6.484 12.146-11.563 17.125l-2.035 2.015c-3.869 3.808-7.799 7.495-11.945 11-3.432 3-6.58 6.296-9.77 9.547a2856 2856 0 0 1-4 4c1.484 3.487 3.462 5.642 6.188 8.25a119 119 0 0 1 8.101 8.566c3.698 4.269 7.73 8.07 11.899 11.872 12.514 11.427 12.514 11.427 13.187 17.937-.074 5.071-2.087 8.6-5.375 12.375-3.762 2.675-7.305 3.698-11.968 3.452-8.563-1.906-16.203-12.321-22.171-18.33a1278 1278 0 0 0-5.654-5.642l-3.582-3.59-1.714-1.7C284 504.23 284 504.23 284 502c-3.088-1.765-4.233-2-8-2a128 128 0 0 0-4 5 110 110 0 0 1-3.5 3.125c-7.486 6.426-14.853 12.839-21.312 20.313-4.403 4.98-8.25 8.61-15.188 9.062-4.545-.256-7.333-1.84-11-4.5-3.07-3.466-3.756-6.987-3.493-11.52 1.918-9.647 14.38-18.552 21.18-25.23a3126 3126 0 0 0 5.514-5.442q1.7-1.682 3.409-3.356c4.535-4.439 4.535-4.439 8.39-9.452-.372-3.346-1.614-4.975-3.988-7.28l-1.902-1.873-2.067-1.992-2.12-2.084c-2.99-2.942-5.998-5.866-9.004-8.79-2.194-2.14-4.379-4.289-6.564-6.438l-2.049-1.974c-4.364-4.296-8.372-8.663-9.837-14.792.086-5.077 1.24-7.953 4.531-11.777 4.372-3.858 9.453-3.787 15-3"/><path fill="#E8EAEB" d="M527.125 679.625c9.005 7.439 15.947 16.757 17.098 28.684.367 10.246-2.719 18.792-9.223 26.691-6.698 7.017-14.57 12.022-24.445 12.293-12.047.11-19.456-2.413-28.356-10.922-8.574-9.244-9.763-18.55-9.515-30.71.347-7.284 2.623-13.78 7.648-19.223 13.821-11.912 30.25-15.415 46.793-6.813"/><path fill="#E6E9E9" d="M295 679c8.295 5.415 14.427 13.353 17 23 1.47 9.313 1.305 19.934-4 28-6.266 8.393-13.444 14.998-24 17-11.913.926-21.138-.362-30.375-8.25-7.583-7.33-11.808-14.851-12.005-25.527l.005-2.473.005-2.555c.168-8.529 2.087-16.077 8.37-22.195 13.766-10.903 28.349-15.476 45-7M759.21 679.684c8.474 6.234 13.93 14.22 16.79 24.316 1.048 10.175.137 19.327-5.988 27.727-7.24 8.476-15.601 14.328-26.864 15.593-9.987.387-17.792-1.968-25.46-8.445-8.723-8.445-12.571-17.174-13.125-29.125.177-9.566 3.733-18.064 10.351-25 12.338-10.351 30.097-13.852 44.297-5.066"/><path fill="#E3E6E6" d="M524.238 207.188c9.282 5.74 15.325 13.5 18.762 23.812.122 2.414.175 4.833.188 7.25l.042 3.89c-.584 9.789-4.916 19.255-12.23 25.86-2.888 1.929-5.852 3.538-9 5l-2.234 1.113c-8.5 2.725-20.617 2.208-28.598-1.734-8.59-5.463-15.095-12.71-17.805-22.734-1.51-10.996-1.216-21.814 4.77-31.473 10.28-13.48 30.952-19.024 46.105-10.984"/><path fill="#E6E8E8" d="M290.438 205.438C300.754 210.482 306.872 218.475 311 229c2.977 9.299 1.372 19.478-3 28-4.421 7.545-8.865 12.626-17 16-.748.36-1.495.722-2.266 1.094-9.45 3.132-20.4 1.472-29.218-2.61-8.696-5.13-13.679-12.926-16.817-22.406C240.235 238.23 241.494 227.69 247 218c2.332-2.981 4.84-4.94 8-7l2.809-1.973c10.063-6.319 21.288-7.405 32.628-3.59M756.637 206.742c9.241 4.919 15.445 13.432 18.664 23.278 2.44 10.4.667 19.615-4.301 28.98-5.542 8.537-13.497 12.832-23 16-11.798.798-21.613-.08-30.89-7.844-8.611-8.802-11.573-18.515-11.542-30.59.231-8.612 2.568-16.24 8.87-22.379 12.971-9.862 26.484-14.103 42.199-7.445"/><path fill="#E7E9E9" d="M758.094 444.29c2.062 1.482 3.987 3.046 5.906 4.71l1.914 1.629c5.97 5.474 8.925 10.674 9.465 18.82.464 12.438-1.221 21.702-9.332 31.512-7.007 6.98-16.596 11.044-26.422 11.476-10.038-.363-17.304-4.07-24.46-11.011-8.31-9.314-10.021-20.254-9.595-32.414.654-8.54 4.778-15.02 11.18-20.512 11.97-8.684 28.135-12.343 41.344-4.21"/><path fill="#C9CBCE" d="M408 609h202v12H408z"/><path fill="#CCCED1" d="M407 372h203v11q-38.595.035-77.189.052-17.92.007-35.84.023-15.615.015-31.232.02-8.271 0-16.542.01-7.782.012-15.564.008-2.858 0-5.717.006-3.899.007-7.798.001l-2.29.01c-3.736-.012-7.196-.232-10.828-1.13z"/><path fill="#C7C9CB" d="M814 603c1.324 2.649.78 4.369-.094 7.121-1.778 3.686-4.454 5.794-7.906 7.879-7.016 2.226-14.286 2.304-21.58 2.319l-3.376.03c-3.668.031-7.336.048-11.005.065q-3.885.028-7.77.059-8.157.06-16.315.105c-7.535.041-15.07.094-22.604.15-27.783.203-55.566.336-83.35.272v-13l6.3.027q29.355.122 58.711.18 15.093.028 30.186.095 13.155.06 26.31.074c4.644.006 9.287.018 13.93.047q6.558.039 13.115.03 2.406 0 4.811.024c2.192.02 4.383.015 6.576.004l3.715.011c4.28-.63 7.28-2.426 10.346-5.492"/><path fill="#C9CCCE" d="m209.088 370.977 2.603.06 2.872.082 6.237.146 3.377.084c21.75.53 43.493.754 65.249.749h3.571c9.439-.003 18.877-.02 28.316-.035L378 372v178h-1V383c-51.967.08-51.967.08-103.934.18-10.056.01-10.056.01-14.766.01q-4.927.004-9.856.021-6.293.02-12.587.015-2.304 0-4.61.012c-18.43.089-18.43.089-24.122-4.613-1.771-2.188-3.07-4.033-4.125-6.625 2.316-1.158 3.517-1.09 6.088-1.023"/><path fill="#C8CACC" d="m209 606 2.198.92c3.372 1.3 6.018 1.342 9.63 1.358l2.042.018c2.25.017 4.501.02 6.752.023l4.85.03c4.384.028 8.767.043 13.151.056 4.583.015 9.167.042 13.75.068 8.676.047 17.353.083 26.03.116 9.879.039 19.758.088 29.637.138q30.48.154 60.96.273.039 2.718.063 5.438l.035 3.058C378 620 378 620 377 621a69 69 0 0 1-4.473.127l-2.927.009-3.238-.007-3.39.006q-5.578.004-11.156-.002l-7.716.003q-8.1.002-16.199-.006-9.372-.007-18.743.002-9.003.007-18.006.002-3.837 0-7.674.002-5.355.003-10.71-.007l-3.232.007-2.936-.009-2.56-.001C262 621 262 621 260 620c-2.428-.004-4.822.052-7.246.156l-4.479.16q-3.514.135-7.029.277c-25.671 1.012-25.671 1.012-33.246-4.593-1.844-1.92-3.397-3.863-5-6 1.964-1.506 3.783-2.891 6-4"/><path fill="#CBCDCF" d="M813 369c.412 4.206.49 6.31-2 9.813-7.47 5.447-16.675 4.468-25.519 4.43q-2.195.001-4.388.006c-3.955.004-7.91-.003-11.864-.013-4.152-.01-8.303-.007-12.454-.007q-10.458-.002-20.916-.023-12.062-.023-24.123-.02-12.88-.001-25.757-.016-3.693-.003-7.387-.003-5.823-.002-11.647-.017a1732 1732 0 0 0-4.254-.004c-7.64.002-15.103-.232-22.691-1.146v-10l2.613-.01q31.447-.121 62.893-.278 15.208-.076 30.415-.134 13.253-.05 26.505-.12 7.02-.04 14.038-.061 6.604-.02 13.208-.064 2.426-.014 4.852-.017a959 959 0 0 0 6.617-.038l3.743-.016c2.901-.244 5.502-2.262 8.116-2.262"/><path fill="#C9CBCC" d="M682 739c2.499 2.98 4.674 6.034 6.75 9.313 9.078 13.65 23.691 22.656 39.688 26 17.025 2.533 33.842-.12 48.093-10.083 2.842-2.174 5.568-4.459 8.285-6.785C788.856 754 788.856 754 791 754l2-1.5c2-1.5 2-1.5 4-1.5-2.756 12.298-8.552 20.06-19 27-8.347 4.83-16.488 8.21-26 10l-3.437.688c-17.883 1.568-35.529-2.868-49.622-14.467-9.594-8.59-16.402-20.306-17.941-33.221z"/><path fill="#CACCCE" d="M450 740c2.078 2.548 4.077 5.11 5.973 7.797 9.882 13.965 22.982 23.477 39.925 26.765C514.973 777.254 533.481 772.13 549 761l1.566-1.715C552 758 552 758 556 758l.813-1.812c1.186-2.186 2.283-3.601 4.187-5.188h2v-3h2c-2.234 12.155-6.719 20.332-16.75 27.625A266 266 0 0 1 543 779l-2.594 1.664c-10.144 6.057-20.577 7.569-32.218 7.649-.777.005-1.553.01-2.352.017-5.485-.07-10.532-.956-15.836-2.33v-2l-3 1c-11.81-3.335-23.816-10.952-30.005-21.754a256 256 0 0 1-3.308-6.246l-1.06-2.05c-2.117-4.302-3.305-8.096-3.627-12.95z"/><path fill="#C9CBCD" d="M219 740c2.137 2.617 4.177 5.251 6.121 8.016 9.445 13.187 22.75 22.523 38.754 26.359 17.973 2.783 36.046-.709 50.945-11.398 3.971-3.115 7.652-6.368 11.18-9.977l-1 4 5 2c-1.397 7.798-9.241 13.516-15.2 18.11-7.65 5.163-15.616 8.338-24.753 9.566-2.036.117-2.036.117-3.047 1.324-5.018.945-9.8 1.087-14.875.75l-2.111-.133c-5.448-.416-9.982-1.55-15.014-3.617v-2l-2.07-.277c-12.233-3.018-20.88-11.528-27.204-21.933l-1.101-1.852-1.05-1.751c-2.292-4.056-3.137-7.576-3.575-12.187-.32-1.67-.647-3.337-1-5"/><path fill="#C8CACC" d="M682 267c2.465 2.94 4.598 5.94 6.625 9.188 9.551 14.398 22.167 21.637 38.75 25.343 18.942 3.387 35.917-.487 51.586-11.312 3.53-2.577 6.779-5.313 10.039-8.219a80 80 0 0 1 4-2l2.25-1.125L797 278c-.952 9.522-6.124 16.61-13 23-12.73 9.33-26.148 13.398-41.75 13.313l-3.213-.015c-18.13-.271-32.125-6.384-45.6-18.626-2.668-2.925-4.697-5.988-6.625-9.422l-1.052-1.86c-2.632-4.816-4.136-8.956-4.76-14.39z"/><path fill="#C9CBCC" d="M683 508h3c1.762 2.125 1.762 2.125 3.688 5 9.25 13.018 21.203 21.276 37.054 24.602C746.426 540.009 763.958 535.96 780 524a226 226 0 0 0 3.25-2.812c2.822-2.245 4.24-2.818 7.75-3.188 1.335-.325 2.67-.655 4-1-1.304 8.464-7 14.754-13.383 20.148-7.65 5.413-16.603 8.537-25.617 10.852l-1.984.621c-16.308 4.583-33.832 1.054-48.383-6.918-1.932-1.18-3.796-2.38-5.633-3.703l-2.434-1.734c-3.002-2.651-5.083-5.589-7.191-8.953l-1.19-1.875C685.816 519.98 683 514.576 683 508"/><path fill="#C9CCD0" d="M510 497c1.308 1.227 1.308 1.227 2.77 3.07 5.275 6.292 11.127 12.013 16.928 17.814 2 2.002 3.992 4.012 5.984 6.022q1.914 1.92 3.83 3.836l1.793 1.815c.558.555 1.115 1.11 1.69 1.68l1.47 1.475c4 3.356 7.372 3.726 12.535 3.288a58 58 0 0 0 3.75-1.625L564 533l3 2c-2.958 5.21-5.132 8.226-11 10-3.767.48-5.564.232-8.937-1.562-4.682-3.727-8.728-7.795-12.5-12.438-2.522-2.952-5.154-5.291-8.102-7.793-3.851-3.454-7.45-7.156-11.068-10.852-2.905-3.056-2.905-3.056-6.393-5.355l-.742 1.73c-3.646 6.58-10.562 11.598-16.215 16.45-2.326 2.072-4.53 4.24-6.73 6.445l-2.305 2.305a91 91 0 0 0-4.32 4.82c-4.897 4.1-11.413 7.517-17.899 6.988-4.759-1.26-7.09-3.618-9.664-7.738-1.132-3.018-1.355-4.093-.125-7l2.313 1.938c4.198 3.222 7.48 3.65 12.687 3.062 6.565-2.911 11.162-8.106 15.83-13.388 4.378-4.944 9.21-9.257 14.17-13.612 3.503-3.344 6.576-6.85 9.57-10.645C507 497 507 497 510 497"/><path fill="#CED0D2" d="M277 498c3.86 1.572 6.111 4.041 9 7l3.059 3.09 1.648 1.669q3.676 3.712 7.358 7.416 1.938 1.953 3.87 3.91 2.807 2.842 5.627 5.673l1.73 1.761c4.182 4.183 7.477 7.265 13.583 7.856 4.24-.145 7.357-1.491 11.125-3.375-.28 4.013-.758 5.72-3.437 8.813-2.68 2.287-3.752 3.071-7.188 3.562-8.186-.91-13.671-7.389-18.875-13.25-4.427-4.93-8.882-9.478-14.014-13.684L289 517v-2l-1.812-.812C285.002 513 283.587 511.904 282 510v-2h-4l-.723 1.707c-4.348 7.805-12.806 13.665-19.691 19.133-2.389 1.995-4.47 4.071-6.586 6.347-5.682 5.847-12.812 10.021-21 10.813-4.575-1.852-6.508-4.846-9-9l1-2c3 0 3 0 6 1 6.194.748 9.569-.25 14.602-3.918 3.255-2.826 6.098-5.957 8.947-9.189 4.759-5.367 9.987-10.158 15.287-14.983 2.805-2.556 5.501-5.205 8.164-7.91z"/><path fill="#C6C8CA" d="M756.637 206.742c7.586 4.038 13.597 10.762 16.738 18.758L774 228c-3.614-2.083-6.884-4.395-10.187-6.937-9.18-6.655-17.349-9.643-28.813-8.063-5.53 1.663-10.655 3.875-15.312 7.313-3.399 2.133-5.75 2.002-9.688 1.687 1.72-6.498 6.684-9.527 12.047-12.937 11.235-6.304 22.42-7.477 34.59-2.32"/><path fill="#C8CACC" d="M292.723 206.54c6.982 4.478 12.855 9.838 16.277 17.46v2c-3.689-.224-5.558-1.32-8.187-3.75-7.385-6.735-16.159-9.812-26.04-9.812-5.935.884-10.559 3.675-15.656 6.714C256 221 256 221 253 222l-.875-1.875c-1.062-2.258-1.062-2.258-3.125-4.125a379 379 0 0 1 11-8l1.914-1.422c8.146-5.133 22.347-4.118 30.809-.039"/><path fill="#CACCCE" d="M527.125 679.625c6.563 5.422 11.678 11.452 14.875 19.375l-1 2-2-2.062a640 640 0 0 0-3-2.938l-1.727-1.715c-6.552-6.161-13.778-10.519-22.96-10.722-8.117.436-14.097 2.602-21.211 6.511L488 691l-2-1v-3l-3 1-2-2c14.344-11.077 29.39-15.078 46.125-6.375"/><path fill="#C9CBCD" d="M759.21 679.684c6.434 4.733 11.923 10.765 14.79 18.316l-1 2c-3.397-1.132-4.022-2.014-6.187-4.75-5.156-6.082-11.93-10.737-20.012-11.586-10.807-.12-18.05 2.21-26.801 8.336h-2l-2-8c12.718-9.492 28.896-13.174 43.21-4.316"/><path fill="#C6C8C9" d="M758.094 444.29c2.062 1.482 3.987 3.046 5.906 4.71l1.914 1.629c4.402 4.036 7.61 8.503 9.086 14.371-.406 2.27-.406 2.27-1 4l-1-2-1.883-.898c-2.44-1.27-3.37-2.527-4.992-4.727-5.18-6.082-12.922-11.279-20.832-12.945-2.53-.058-4.796.162-7.293.57l-3.281.477A254 254 0 0 0 726 451c.875-4.875.875-4.875 2-6l-2-2c11.17-3.567 21.654-5.138 32.094 1.29"/><path fill="#C1C3C5" d="M516 506c4.16 1.626 6.892 4.673 9.938 7.813l1.702 1.725c2.398 2.43 4.783 4.872 7.17 7.313 1.746 1.783 3.5 3.56 5.253 5.337l1.622 1.673c3.794 3.842 6.235 5.943 11.628 6.452 3.212-.273 4.66-.617 7.437-1.938L564 533l3 2c-2.958 5.21-5.132 8.226-11 10-3.767.48-5.564.232-8.937-1.562-4.682-3.727-8.728-7.795-12.5-12.438-2.042-2.39-3.95-4.284-6.313-6.312-3.14-2.714-6.269-5.43-9.312-8.25l-2.348-2.13C515 512 515 512 515.254 508.724z"/><path fill="#D2D4D6" d="M564.297 443.25 566 444c-3.178 12.393-13.635 23.324-24.152 30.04C540 475 540 475 538 475l-.75 1.875c-1.456 2.476-2.628 3.076-5.25 4.125l-3-4c1.434-3.31 3.21-5.397 5.813-7.875 2.401-2.333 4.564-4.586 6.687-7.187 2.555-3.003 5.242-5.452 8.246-7.989a133 133 0 0 0 4.852-4.43L557.25 447c.81-.784 1.62-1.567 2.453-2.375C562 443 562 443 564.297 443.25"/><path fill="#C7C9CB" d="M285 507c4.569 1.414 7.33 3.962 10.563 7.34l1.556 1.584a988 988 0 0 1 4.881 5.014c1.623 1.67 3.249 3.34 4.88 5.002a417 417 0 0 1 3.023 3.112c4.057 4.143 7.121 6.757 12.972 7.323 4.24-.145 7.357-1.491 11.125-3.375-.28 4.013-.758 5.72-3.437 8.813-2.68 2.287-3.752 3.071-7.188 3.562-8.186-.91-13.671-7.389-18.875-13.25-4.427-4.93-8.882-9.478-14.014-13.684L289 517v-2l-1.875-.75c-2.476-1.456-3.076-2.628-4.125-5.25z"/><path fill="#CACCCD" d="M295 679c9.283 6.848 9.283 6.848 11 12l-3 3-2.875-2.75c-6.92-5.961-16.07-8.844-25.125-8.25-6.776 1.6-12.878 4.767-19 8 1-3 1-3 4-5l-2-3h-3c11.26-10.17 26.644-10.944 40-4"/><path fill="#CDCED0" d="m450 439 2.078 2.11c2.55 2.55 5.181 5.002 7.834 7.446 9.287 8.559 18.212 17.462 27.088 26.444l-1 3c-16.575-7.078-30.041-19.057-37-36z"/><path fill="#C0C2C2" d="m221 442 1 2 2.174.274c3.97 1.02 6.223 3.512 9.037 6.335l1.734 1.709a604 604 0 0 1 3.596 3.591 501 501 0 0 0 5.549 5.458q1.75 1.745 3.496 3.492l1.691 1.636c1.53 1.567 1.53 1.567 3.723 4.505-.162 2.884-.162 2.884-1 5-5.764-2.99-10.24-6.6-14.937-11.062l-2.12-2.004c-5.28-5.09-10.511-10.375-13.943-16.934z"/><path fill="#C4C7C8" d="M565.375 533.813 567 535c-2.958 5.21-5.132 8.226-11 10-3.468.361-5.568.173-8.812-1.125C545 542 545 542 544.063 538.938L544 536l2-2 1.563 1c3.341 1.37 5.847 1.31 9.437 1l3.188-1.625C563 533 563 533 565.375 533.813"/><path fill="#CBCDCE" d="m462 457 1 2h3v2l1.8.27c8.8 1.902 13.423 7.261 19.2 13.73l-1 3c-7.216-3.081-13.224-6.63-19.187-11.687l-1.71-1.441c-2.57-2.246-4.005-3.58-5.103-6.872z"/><path fill="#BEC1C2" d="M285 507c5.742 1.998 9.125 5.538 13.375 9.75l2.27 2.133c1.99 1.964 3.78 3.805 5.355 6.117-.023 3.516-.023 3.516-1 6q-3.509-2.989-7-6l-2.469-2.11-2.469-2.14-2.34-2.016C289 517 289 517 289 515l-1.875-.75c-2.476-1.456-3.076-2.628-4.125-5.25z"/><path fill="#C3C5C7" d="M250 533c0 3 0 3-1.398 4.465-5.859 4.364-12.341 8.937-19.915 8.222-3.713-2.332-5.356-4.984-7.687-8.687l1-2c3 0 3 0 5.125 1.5 3.886 2.028 7.555 2.153 11.875 1.5l2-2h3v2z"/><path fill="#C1C3C4" d="m219 740 1.695 2.137a236 236 0 0 0 4.735 5.695c6.504 7.927 6.504 7.927 6.707 11.727-.575 2.191-.575 2.191-2.137 5.441-4.827-4.138-7.806-9.025-10-15-.105-2.637-.105-2.637 0-5a105 105 0 0 0-1-5"/><path fill="#DDDFE3" d="m729 444-2 3c-.167 2.625-.167 2.625 0 5-7.657 3.603-7.657 3.603-12 3l-3-2q2.435-1.972 4.875-3.937l2.742-2.215c3.41-2.644 5.124-2.96 9.383-2.848"/><path fill="#E9EBEB" d="M249 483h2c-1.64 4.172-4.693 6.981-7.812 10.078l-1.726 1.732a1260 1260 0 0 1-3.611 3.6c-1.851 1.84-3.691 3.691-5.53 5.543l-3.508 3.5-1.674 1.685C223.23 513 223.23 513 221 513c1.561-3.832 4.029-6.174 7-9l1.688-1.812C231 501 231 501 233 501l.688-1.687c1.671-2.946 3.895-4.956 6.312-7.313l2-3h3v-2h2z"/><path fill="#D4D5DC" d="m721 210 3 1-4 4 2 2c-2.062 2.5-2.062 2.5-5 5-3.812.313-3.812.313-7 0 1.39-5.251 4.804-7.873 9-11z"/><path fill="#DEE0E5" d="M329 748h4c-.63 5.781-1.652 11.344-3 17h-3l2-3v-3l-5-1q.678-1.94 1.375-3.875l.773-2.18C327 750 327 750 329 748"/><path fill="#C7C9CA" d="M450 268c3.219 3.794 5.616 7.658 8 12l-1 1q-.062 3.5 0 7l2 1-2 2q-1.732-3.556-3.437-7.125l-.987-2.016c-1.872-3.938-3.216-7.45-3.576-11.859z"/><path fill="#BEC2C1" d="M470 467c4.75 1.875 4.75 1.875 7 3v-3c4.292 1.65 6.88 4.738 10 8l-1 3q-2.879-1.4-5.75-2.812l-3.234-1.583c-2.583-1.374-4.83-2.668-7.016-4.605z"/><path fill="#E9ECEB" d="M301 428h4c-1.584 3.909-4.266 6.524-7.227 9.422l-1.538 1.53a1534 1534 0 0 1-4.86 4.798l-3.297 3.27A3172 3172 0 0 1 280 455c0-4.596 2.893-6.816 6-10a120 120 0 0 1 3.313-2.75c2.906-2.034 2.906-2.034 3.687-5.25l3-1 2-3h2z"/><path fill="#DBDEE3" d="M799 498h2c-1.79 5.628-1.79 5.628-3.125 8-1.187 2.714-1.008 5.074-.875 8l-3 1c-1.667 1.5-1.667 1.5-3 3l-2-1c.948-4.473 3.096-7.873 5.438-11.75l1.236-2.113c1.05-1.75 2.181-3.449 3.326-5.137"/><path fill="#D8DADE" d="m797 742 3 1-3 4 2 3c-.875 3.688-.875 3.688-2 7l-1-4c-3.517 0-4.371.824-7 3 .533-4.225 1.877-6.54 4.563-9.812l1.94-2.395z"/><path fill="#C2C4C6" d="M683 508h3c1.824 2.406 1.824 2.406 3.688 5.5l1.886 3.094L693 519h-2c-1.637 1.96-1.637 1.96-3 4-2.371-4.963-4.432-9.46-5-15"/><path fill="#C2C4C5" d="M682 739c2.957 3.467 5.078 6.869 7 11l-2 3c.312 2.646.312 2.646 1 5-3.061-2.542-4.013-5.205-5.25-8.937l-1.078-3.153c-.659-2.852-.685-4.216.328-6.91"/><path fill="#DCDDE1" d="m334 440 2 1c0 2 0 2-1.61 3.621l-2.14 1.817-2.11 1.808A150 150 0 0 1 324 453l-2-1zm-13 13 1 3-3 1z"/><path fill="#D9DADE" d="M797 272c2 2 2 2 2.125 4.625L799 279l-2.312.313c-2.907.743-3.724 1.536-5.688 3.687h-2c1.396-4.443 3.604-6.865 7-10z"/><path fill="#C9CCCF" d="m563 533 4 2c-1.911 3.536-3.626 5.79-7 8l-2-5h2v-3z"/><path fill="#C5C7C8" d="m221 442 1 2 2.438.438C227 445 227 445 229 448c.125 2.688.125 2.688 0 5-1.75-.125-1.75-.125-4-1-2.934-3.667-4-5.231-4-10"/><path fill="#CDCFCF" d="M765 215c4.334 3.274 7.024 5.77 9 11l-1 2c-2.91-1.774-5.597-3.57-8-6-.5-3.875-.5-3.875 0-7"/><path fill="#E2E4E4" d="M249 483h2c-1.61 4.074-4.538 6.765-7.625 9.75l-1.562 1.535A897 897 0 0 1 238 498l-1-2c.758-1.175 1.532-2.34 2.313-3.5l1.3-1.969L242 489h3v-2h2z"/><path fill="#CCCED1" d="M562 443c2.125.375 2.125.375 4 1-1.09 3.775-1.908 6.47-5 9l-1-4-5 1z"/><path fill="#DEE2E3" d="m627 166-2.484 1.172-3.266 1.578c-1.067.51-2.135 1.02-3.234 1.547-2.883 1.628-4.82 3.251-7.016 5.703l1-5 3-1v-2c3.61-2.407 7.874-4.063 12-2"/><path fill="#C3C4C5" d="m462 457 1 2h3v2h2l1 6c-4.223-2.534-6.783-4.566-9-9z"/><path fill="#E3E5E6" d="M222 418h4v2l-2.312 2.063c-3.37 3.683-4.416 7.19-5.688 11.937h-1c-.405-6.752 1.317-10.475 5-16"/><path fill="#DDDFE0" d="M476.188 182.375 478 183a1361 1361 0 0 1-5.875 4.5c-.556.43-1.111.859-1.684 1.3-4.214 3.2-4.214 3.2-6.441 3.2l2-4h2v-2h3v-2c3-2 3-2 5.188-1.625"/><path fill="#C3C5C6" d="m451 444 3 1v2l1.938.875C458 449 458 449 459 451l-1 3c-3.826-1.451-5.223-3.358-7-7z"/><path fill="#C1C3C7" d="M516 506c3.161 1.37 3.993 1.99 6 5l-2 3c-1.937-.375-1.937-.375-4-1-1.333-2.667-.671-4.167 0-7"/><path fill="#E5E7E6" d="M714.625 415.875 718 416c-1.372 2.745-3.03 3.25-5.75 4.625l-2.61 1.352c-2.76 1.07-4.71 1.223-7.64 1.023 3.75-3 3.75-3 6-3l1-2c2-2 2-2 5.625-2.125"/><path fill="#262827" d="m472 658-1 5-2-1-1.687 2.438c-2.532 2.804-3.639 3.256-7.313 3.562l5-5 2.688-2.812C470 658 470 658 472 658"/><path fill="#E7E8EA" d="m255 530 1 2c-1.52 4.559-4.014 6.428-8.125 8.813L245 542l-2-1z"/><path fill="#D2D4D7" d="m488 681 3 1-2 3c-.633 2.113-.633 2.113-1 4l-3-2-2 1-2-2a210 210 0 0 1 3.313-2.562l1.863-1.442z"/><path fill="#121415" d="m508.375 202.938 2.23.013q2.698.02 5.395.049v1l-2.965.148c-7.197.41-14.038 1.01-21.035 2.852 2-3 2-3 4.602-3.684 3.944-.367 7.815-.425 11.773-.379"/><path fill="#D3D5D5" d="M762 684c3.792 1.49 5.806 3.587 8 7-.25 2.313-.25 2.313-1 4-3.097-2.787-4.654-5.065-6-9z"/><path fill="#232728" d="m466 417 2 2-2.047.113-2.703.2-2.672.175c-2.901.576-4.37 1.588-6.578 3.512l-2-1c5.077-4.142 7.327-5.357 14-5"/><path fill="#B1B3B3" d="M241 465c3.544 1.418 4.338 2.676 6 6 2.034 1.268 2.034 1.268 4 2v2c-5.292-1.4-7.775-4.855-11-9z"/><path fill="#D3D5D6" d="M450 439c3.596 3.494 6.835 7.111 10 11l-6-3v-2h-4a88 88 0 0 1-1-5z"/><path fill="#DEE0E0" d="M205 345h2c-1.652 3.58-3.731 6.78-6 10h-1v-7h4z"/><path fill="#BFC1C2" d="M450 740c4 4.625 4 4.625 4 8l-2-1-1 3c-1.837-3.782-2.158-5.946-1-10"/><path fill="#DEE1E1" d="M526 647c1.605.06 3.21.15 4.813.25l2.707.14c2.48.61 2.48.61 4.304 2.657L539 652c-4.847-.591-8.607-1.98-13-4z"/><path fill="#E9EBEA" d="m703 425-11 10c0-3.66 1.273-4.95 3.629-7.633 2.414-2.407 4.16-3.973 7.371-2.367"/><path fill="#D9DBDD" d="m640 782 1 2-6 7-3-1c4.625-5.75 4.625-5.75 8-8"/><path fill="#242628" d="m256 771 12 2v2a853 853 0 0 1-4.312-.437l-2.426-.247C259 774 259 774 256 773z"/><path fill="#E8ECED" d="m640 622 4 1-.937 1.875c-1.467 4.313-1.73 8.601-2.063 13.125h-1z"/><path fill="#F1F3F3" d="M477 485c0 3 0 3-1.75 5.043l-2.25 2.144-2.25 2.168L469 496c0-3 0-3 2-6h2l.875-1.937C475 486 475 486 477 485"/><path fill="#F1F3F4" d="m534 427 1 3-8 8-1-3c1.375-1.5 1.375-1.5 3-3h2v-2h2z"/><path fill="#EAECEC" d="M312 416h6v2c-1.75 1.508-1.75 1.508-4 3.125l-2.25 1.633L310 424l-2-1 1.438-1.25c1.725-1.932 2.128-3.232 2.562-5.75"/><path fill="#D0D2D3" d="m788 282 2 2a418 418 0 0 1-2.875 3.5l-1.617 1.969L784 291h-2c.472-4.248 2.967-6.2 6-9"/><path fill="#212624" d="m232 193 3 1-6 7-1-4c1.938-2.25 1.938-2.25 4-4"/><path fill="#B7B9BA" d="M544 533c.976 2.928 1.082 4.956 1 8l-7-6 4-1z"/><path fill="#484A4B" d="M775 470h1l1 10 2-2c-.375 2.938-.375 2.938-1 6l-2 1c-1.442-2.884-1.094-5.417-1.062-8.625l.027-3.602z"/><path fill="#E6E8E9" d="m785 533 1 3a783 783 0 0 1-4.375 3l-2.46 1.688C777 542 777 542 775 542v-2c1.934-1.473 1.934-1.473 4.438-3.062 2.934-1.775 2.934-1.775 5.562-3.938"/><path fill="#CFD2D1" d="M304 220c1.938.75 1.938.75 4 2 .75 2.125.75 2.125 1 4-3.688-.498-5.605-1.1-8-4z"/><path fill="#C2C5C4" d="M537 691c2.645 3.125 3.844 6.088 5 10-3-1-3-1-4.75-3.312-1.25-2.688-1.25-2.688-.937-5z"/><path fill="#E0E2E1" d="M695 664c-1.37 2.95-2.878 5.525-5 8h-2c.556-3.891 2.659-8 7-8"/><path fill="#E6E8E9" d="M787 771c-1.488 3.787-3.62 5.774-7 8l-3-1a640 640 0 0 1 3.875-3.5l2.18-1.969C785 771 785 771 787 771"/><path fill="#303232" d="M769 732h2l-2 4h-2l-1 3c-2.062.688-2.062.688-4 1l2.938-3.437 1.652-1.934A50 50 0 0 1 769 732"/><path fill="#DBDDDE" d="m478 527 1 2-5 7-2-1c1.443-3.366 3.333-5.51 6-8"/><path fill="#ECEFF0" d="m542 420 2 1-7 6-1-3h2l1-3z"/><path fill="#CACCCD" d="M508 210h8v2h3l-1 2q-2.222-.423-4.437-.875l-2.497-.492L509 212z"/><path fill="#283133" d="M474 690h2c1.136 3.41.867 4.003-.437 7.188l-.872 2.167L474 701c-1.125-1.687-1.125-1.687-2-4 .875-2.625.875-2.625 2-5z"/><path fill="#C2C2C4" d="m266 676 2 1c-1.312 1.5-1.312 1.5-3 3h-3v2l-4-2q1.931-1.044 3.875-2.062l2.18-1.16z"/><path fill="#C4C7C8" d="m477 467 4 2-1 4-4-2z"/><path fill="#CDCECE" d="M306 691c2.154 2.622 3.4 4.644 4 8h-3c-2.125-4.625-2.125-4.625-1-8"/><path fill="#DFE2E1" d="m232 662 2 1-7 7-1-3z"/><path fill="#262528" d="M230 281c3 1.813 3 1.813 6 4v3c-2.468-1.152-4.048-2.048-6-4z"/><path fill="#242627" d="M269 274v2l3 1c-4.03-.553-8.02-1.156-12-2 3.35-2.11 5.221-2.05 9-1"/><path fill="#E6E7EE" d="M337 262c.75 1.625.75 1.625 1 4-1.937 3.25-1.937 3.25-4 6-1-3-1-3-.223-4.824z"/><path fill="#2B2D2F" d="M796 681h2c1.46 2.647 2 3.894 2 7h-2v-2h-2z"/><path fill="#101214" d="m258 512 3 2a141 141 0 0 1-5 5h-2a56.5 56.5 0 0 1 4-7"/><path fill="#0C0E0F" d="M542.313 292.25 544 293c-2.812 2.063-2.812 2.063-6 4l-3-1c4.43-4.062 4.43-4.062 7.313-3.75"/><path fill="#DCDDE2" d="M339 727h1c.22 3.856-.396 6.492-2 10h-1c-.25-6.625-.25-6.625 2-10"/><path fill="#D7D9DB" d="M470 536v2c-3.982 1.054-6.982.841-11 0v-1c3.735-.575 7.213-1 11-1"/><path fill="#C0C2C4" d="m450 531 3 2v3l2 1h-4z"/><path fill="#D8DADB" d="m562 448-1 4h-6v-2c3-2 3-2 7-2"/><path fill="#DFE2E1" d="M303 262c-1.477 4.677-1.477 4.677-4.125 6.313L297 269c0-3 0-3 1.875-5.187C301 262 301 262 303 262"/><path fill="#C0C2C1" d="M537 220c1.5 1.375 1.5 1.375 3 3v2l-3 1v-2l-3-1z"/><path fill="#C4C6C7" d="M525 216c2.813.188 2.813.188 6 1 1.875 2.563 1.875 2.563 3 5-3.436-1.527-6.12-3.6-9-6"/><path fill="#C8CDCD" d="m530 176-2 2c-2.729-.033-5.297-.564-8-1 3.85-2.567 5.586-1.833 10-1"/><path fill="#1E2424" d="m618 169 3 1-5 4-2-2c1.813-1.562 1.813-1.562 4-3"/></svg>